<svg width="60" height="60" viewBox="0 0 60 60" fill="none" xmlns="http://www.w3.org/2000/svg">
<g clip-path="url(#clip0_207_93)">
<path fill-rule="evenodd" clip-rule="evenodd" d="M0 14.47V60H45.53C53.52 60 60 53.52 60 45.53V0H14.47C6.48 0 0 6.48 0 14.47ZM16.49 48.96V48.92C16.49 48.38 16.49 47.35 16.49 45.95V8.6H25.63V22.33L25.67 22.2V22.31C27.43 21.72 29.35 21.42 31.37 21.42C39.58 21.42 46.25 28.13 46.25 36.4C46.25 44.18 40.35 50.58 32.81 51.31H17.74C16.74 50.96 16.53 49.94 16.49 49.38V48.95V48.96Z" fill="black"/>
<path fill-rule="evenodd" clip-rule="evenodd" d="M25.7199 42.5H31.8899C35.1299 42.4 37.74 39.73 37.74 36.44C37.74 33.15 35.0399 30.38 31.7199 30.38C28.3999 30.38 25.7 32.36 25.7 36.44C25.7 36.55 25.7099 36.66 25.7199 36.77V42.49V42.5Z" fill="black"/>
</g>
<defs>
<clipPath id="clip0_207_93">
<rect width="60" height="60" fill="white"/>
</clipPath>
</defs>
</svg>
